<svg width="20" height="20" viewBox="0 0 20 20" fill="none" xmlns="http://www.w3.org/2000/svg">
<g clip-path="url(#clip0_5223_3309)">
<path d="M18.2941 14.0227C18.0104 13.8669 17.6542 13.9705 17.4984 14.2541C17.3426 14.5378 17.4462 14.894 17.7298 15.0498C18.4278 15.4332 18.8281 15.8583 18.8281 16.2161C18.8281 16.6536 18.2082 17.3317 16.4682 17.9229C14.7493 18.5069 12.4521 18.8285 10 18.8285C7.54785 18.8285 5.2507 18.5069 3.53176 17.9229C1.7918 17.3318 1.17188 16.6536 1.17188 16.2161C1.17188 15.8583 1.57219 15.4332 2.27016 15.0498C2.55379 14.894 2.65738 14.5377 2.50156 14.2541C2.34574 13.9705 1.98961 13.8669 1.7059 14.0227C0.927695 14.4502 0 15.1778 0 16.2161C0 17.0119 0.547344 18.1466 3.15477 19.0325C4.99195 19.6566 7.42297 20.0004 10 20.0004C12.577 20.0004 15.008 19.6566 16.8452 19.0325C19.4527 18.1466 20 17.0119 20 16.2161C20 15.1778 19.0723 14.4502 18.2941 14.0227Z" fill="white"/>
<path d="M5.57586 17.0755C6.76531 17.4115 8.33637 17.5966 9.99961 17.5966C11.6629 17.5966 13.2339 17.4115 14.4234 17.0755C15.8786 16.6644 16.6164 16.0693 16.6164 15.3069C16.6164 14.5445 15.8786 13.9495 14.4234 13.5384C14.1003 13.4471 13.749 13.3671 13.3755 13.2988C13.1726 13.6493 12.9601 14.01 12.7379 14.3812C13.1513 14.4432 13.5395 14.5193 13.892 14.6091C14.9629 14.8818 15.3541 15.1889 15.4346 15.307C15.3541 15.425 14.9629 15.7321 13.892 16.0048C12.8784 16.263 11.5742 16.4103 10.2007 16.4234C10.1341 16.4284 10.0671 16.4311 9.99961 16.4311C9.93207 16.4311 9.86508 16.4284 9.79852 16.4234C8.42496 16.4103 7.12082 16.263 6.10719 16.0048C5.03625 15.7321 4.64504 15.425 4.56461 15.307C4.64504 15.1889 5.03629 14.8818 6.10723 14.6091C6.45973 14.5193 6.84789 14.4432 7.26137 14.3812C7.03914 14.0101 6.8266 13.6493 6.62375 13.2988C6.25023 13.3671 5.89887 13.4471 5.57586 13.5384C4.12066 13.9495 3.38281 14.5445 3.38281 15.3069C3.38281 16.0693 4.12066 16.6644 5.57586 17.0755Z" fill="white"/>
<path d="M9.99961 15.2591C10.5212 15.2591 10.995 14.9934 11.2671 14.5482C13.1737 11.4288 15.4465 7.31758 15.4465 5.44684C15.4465 2.44344 13.003 0 9.99961 0C6.99617 0 4.55273 2.44344 4.55273 5.44684C4.55273 7.31758 6.82551 11.4288 8.73211 14.5482C9.00422 14.9934 9.47805 15.2591 9.99961 15.2591ZM7.81027 5.07285C7.81027 3.8657 8.79242 2.88359 9.99961 2.88359C11.2068 2.88359 12.1889 3.8657 12.1889 5.07285C12.1889 6.28004 11.2068 7.26215 9.99961 7.26215C8.79242 7.26215 7.81027 6.28008 7.81027 5.07285Z" fill="white"/>
</g>
<defs>
<clipPath id="clip0_5223_3309">
<rect width="20" height="20" fill="white"/>
</clipPath>
</defs>
</svg>
